<svg width="34" height="34" viewBox="0 0 34 34" fill="none" xmlns="http://www.w3.org/2000/svg">
<path fill-rule="evenodd" clip-rule="evenodd" d="M8.35256 15.0344C9.23865 15.0344 10.0884 14.6824 10.715 14.0558C11.3416 13.4293 11.6936 12.5795 11.6936 11.6934C11.6936 10.8073 11.3416 9.9575 10.715 9.33094C10.0884 8.70438 9.23865 8.35238 8.35256 8.35238C7.46648 8.35238 6.61668 8.70438 5.99012 9.33094C5.36356 9.9575 5.01156 10.8073 5.01156 11.6934C5.01156 12.5795 5.36356 13.4293 5.99012 14.0558C6.61668 14.6824 7.46648 15.0344 8.35256 15.0344ZM8.35256 16.7049C9.01068 16.7049 9.66236 16.5753 10.2704 16.3234C10.8784 16.0716 11.4309 15.7024 11.8962 15.2371C12.3616 14.7717 12.7307 14.2192 12.9826 13.6112C13.2344 13.0032 13.3641 12.3515 13.3641 11.6934C13.3641 11.0353 13.2344 10.3836 12.9826 9.77557C12.7307 9.16754 12.3616 8.61508 11.8962 8.14972C11.4309 7.68436 10.8784 7.31521 10.2704 7.06336C9.66236 6.81151 9.01068 6.68188 8.35256 6.68188C7.02343 6.68188 5.74874 7.20988 4.8089 8.14972C3.86906 9.08956 3.34106 10.3643 3.34106 11.6934C3.34106 13.0225 3.86906 14.2972 4.8089 15.2371C5.74874 16.1769 7.02343 16.7049 8.35256 16.7049Z" fill="#4CAF4F"/>
<path fill-rule="evenodd" clip-rule="evenodd" d="M6.43822 14.8605C6.516 14.9381 6.57771 15.0303 6.61982 15.1318C6.66193 15.2333 6.6836 15.342 6.6836 15.4519C6.6836 15.5618 6.66193 15.6706 6.61982 15.772C6.57771 15.8735 6.516 15.9657 6.43822 16.0433L5.87359 16.6062C4.78699 17.6931 4.1765 19.1671 4.17636 20.704V23.8044C4.17636 24.0259 4.08836 24.2384 3.93172 24.395C3.77508 24.5517 3.56263 24.6397 3.34111 24.6397C3.11959 24.6397 2.90714 24.5517 2.7505 24.395C2.59386 24.2384 2.50586 24.0259 2.50586 23.8044V20.704C2.5061 18.7241 3.29264 16.8253 4.69254 15.4252L5.2555 14.8605C5.33309 14.7828 5.42526 14.7211 5.52674 14.6789C5.62821 14.6368 5.73699 14.6152 5.84686 14.6152C5.95672 14.6152 6.06551 14.6368 6.16698 14.6789C6.26846 14.7211 6.36063 14.7828 6.43822 14.8605ZM26.1368 14.3594C26.059 14.437 25.9973 14.5292 25.9551 14.6306C25.913 14.7321 25.8914 14.8409 25.8914 14.9508C25.8914 15.0606 25.913 15.1694 25.9551 15.2709C25.9973 15.3724 26.059 15.4645 26.1368 15.5421L26.7014 16.1051C27.2395 16.6432 27.6663 17.282 27.9575 17.9851C28.2488 18.6882 28.3986 19.4418 28.3986 20.2028V23.8044C28.3986 24.0259 28.4866 24.2384 28.6432 24.395C28.7999 24.5517 29.0123 24.6397 29.2339 24.6397C29.4554 24.6397 29.6678 24.5517 29.8245 24.395C29.9811 24.2384 30.0691 24.0259 30.0691 23.8044V20.2028C30.0689 18.2229 29.2823 16.3241 27.8824 14.924L27.3195 14.3594C27.2419 14.2816 27.1497 14.2199 27.0482 14.1778C26.9468 14.1357 26.838 14.114 26.7281 14.114C26.6182 14.114 26.5095 14.1357 26.408 14.1778C26.3065 14.2199 26.2143 14.2816 26.1368 14.3594Z" fill="#4CAF4F"/>
<path fill-rule="evenodd" clip-rule="evenodd" d="M23.3872 15.0344C22.5011 15.0344 21.6513 14.6824 21.0247 14.0558C20.3982 13.4293 20.0462 12.5795 20.0462 11.6934C20.0462 10.8073 20.3982 9.9575 21.0247 9.33094C21.6513 8.70438 22.5011 8.35238 23.3872 8.35238C24.2733 8.35238 25.1231 8.70438 25.7496 9.33094C26.3762 9.9575 26.7282 10.8073 26.7282 11.6934C26.7282 12.5795 26.3762 13.4293 25.7496 14.0558C25.1231 14.6824 24.2733 15.0344 23.3872 15.0344ZM23.3872 16.7049C22.7291 16.7049 22.0774 16.5753 21.4694 16.3234C20.8614 16.0716 20.3089 15.7024 19.8435 15.2371C19.3782 14.7717 19.009 14.2192 18.7572 13.6112C18.5053 13.0032 18.3757 12.3515 18.3757 11.6934C18.3757 11.0353 18.5053 10.3836 18.7572 9.77557C19.009 9.16754 19.3782 8.61508 19.8435 8.14972C20.3089 7.68436 20.8614 7.31521 21.4694 7.06336C22.0774 6.81151 22.7291 6.68188 23.3872 6.68188C24.7163 6.68188 25.991 7.20988 26.9309 8.14972C27.8707 9.08956 28.3987 10.3643 28.3987 11.6934C28.3987 13.0225 27.8707 14.2972 26.9309 15.2371C25.991 16.1769 24.7163 16.7049 23.3872 16.7049ZM15.8699 22.134C14.7623 22.134 13.7001 22.574 12.9169 23.3572C12.1337 24.1404 11.6937 25.2026 11.6937 26.3103V28.4819C11.6937 28.7034 11.6057 28.9159 11.4491 29.0725C11.2924 29.2292 11.08 29.3172 10.8584 29.3172C10.6369 29.3172 10.4245 29.2292 10.2678 29.0725C10.1112 28.9159 10.0232 28.7034 10.0232 28.4819V26.3103C10.0232 24.7596 10.6392 23.2725 11.7357 22.176C12.8321 21.0795 14.3193 20.4635 15.8699 20.4635C17.4206 20.4635 18.9077 21.0795 20.0042 22.176C21.1007 23.2725 21.7167 24.7596 21.7167 26.3103V28.4819C21.7167 28.7034 21.6287 28.9159 21.4721 29.0725C21.3154 29.2292 21.103 29.3172 20.8814 29.3172C20.6599 29.3172 20.4475 29.2292 20.2908 29.0725C20.1342 28.9159 20.0462 28.7034 20.0462 28.4819V26.3103C20.0462 25.7618 19.9382 25.2188 19.7283 24.7121C19.5184 24.2054 19.2108 23.745 18.823 23.3572C18.4352 22.9694 17.9748 22.6618 17.4681 22.4519C16.9614 22.242 16.4184 22.134 15.8699 22.134Z" fill="#4CAF4F"/>
<path fill-rule="evenodd" clip-rule="evenodd" d="M15.8699 19.6284C16.756 19.6284 17.6058 19.2764 18.2323 18.6498C18.8589 18.0233 19.2109 17.1735 19.2109 16.2874C19.2109 15.4013 18.8589 14.5515 18.2323 13.9249C17.6058 13.2984 16.756 12.9464 15.8699 12.9464C14.9838 12.9464 14.134 13.2984 13.5075 13.9249C12.8809 14.5515 12.5289 15.4013 12.5289 16.2874C12.5289 17.1735 12.8809 18.0233 13.5075 18.6498C14.134 19.2764 14.9838 19.6284 15.8699 19.6284ZM15.8699 21.2989C17.199 21.2989 18.4737 20.7709 19.4136 19.831C20.3534 18.8912 20.8814 17.6165 20.8814 16.2874C20.8814 14.9582 20.3534 13.6836 19.4136 12.7437C18.4737 11.8039 17.199 11.2759 15.8699 11.2759C14.5408 11.2759 13.2661 11.8039 12.3262 12.7437C11.3864 13.6836 10.8584 14.9582 10.8584 16.2874C10.8584 17.6165 11.3864 18.8912 12.3262 19.831C13.2661 20.7709 14.5408 21.2989 15.8699 21.2989Z" fill="#4CAF4F"/>
</svg>
