<svg width="807" height="68" viewBox="0 0 807 68" fill="none" xmlns="http://www.w3.org/2000/svg">
<g clip-path="url(#clip0_4_479)">
<path fill-rule="evenodd" clip-rule="evenodd" d="M9.74503 20.0786C13.5893 20.0786 16.7057 23.195 16.7057 27.0392V20.0786H23.6664C27.5107 20.0786 30.6271 23.195 30.6271 27.0392C30.6271 30.8835 27.5107 33.9999 23.6664 33.9999C27.5107 33.9999 30.6271 37.1164 30.6271 40.9606C30.6271 42.8695 29.8587 44.5989 28.6144 45.8564L28.5884 45.8826L28.5653 45.9056C27.3075 47.1517 25.5769 47.9213 23.6664 47.9213C21.769 47.9213 20.0489 47.1621 18.7932 45.9309C18.777 45.9149 18.7607 45.8988 18.7444 45.8826C18.7292 45.8674 18.714 45.8521 18.6989 45.8367C17.4661 44.5808 16.7057 42.8595 16.7057 40.9606C16.7057 44.8049 13.5893 47.9213 9.74503 47.9213C5.90075 47.9213 2.78434 44.8049 2.78434 40.9606V33.9999H9.74503C5.90075 33.9999 2.78434 30.8835 2.78434 27.0392C2.78434 23.195 5.90075 20.0786 9.74503 20.0786ZM15.3136 27.0392C15.3136 30.1147 12.8205 32.6078 9.74503 32.6078V21.4707C12.8205 21.4707 15.3136 23.9638 15.3136 27.0392ZM29.235 40.9606C29.235 37.8852 26.7419 35.3921 23.6664 35.3921C20.591 35.3921 18.0979 37.8852 18.0979 40.9606H29.235ZM4.17648 35.3921V40.9606C4.17648 44.0361 6.6696 46.5292 9.74503 46.5292C12.8205 46.5292 15.3136 44.0361 15.3136 40.9606V35.3921H4.17648ZM18.0979 32.6078V21.4707H23.6664C26.7419 21.4707 29.235 23.9638 29.235 27.0392C29.235 30.1147 26.7419 32.6078 23.6664 32.6078H18.0979Z" fill="#263238"/>
</g>
<g clip-path="url(#clip1_4_479)">
<path fill-rule="evenodd" clip-rule="evenodd" d="M138.667 27.0124L131.716 33.8933C133.106 35.2697 134.694 36.4296 136.426 37.3371C136.905 38.5939 137.655 39.7726 138.677 40.7841C142.521 44.5897 148.754 44.5897 152.598 40.7841C153.62 39.7726 154.37 38.5939 154.849 37.337C156.58 36.4296 158.168 35.2697 159.559 33.8933L152.614 27.018C152.608 27.0129 152.603 27.0077 152.598 27.0026C148.754 23.197 142.521 23.197 138.677 27.0026C138.673 27.0059 138.67 27.0092 138.667 27.0124ZM151.933 38.5785C149.907 39.2552 147.781 39.6018 145.637 39.6018C143.494 39.6018 141.367 39.2552 139.342 38.5785C139.561 38.8668 139.804 39.1434 140.069 39.4059C143.144 42.4505 148.13 42.4505 151.206 39.4059C151.471 39.1434 151.713 38.8668 151.933 38.5785ZM140.212 28.2429C140.734 28.5845 141.289 28.8768 141.87 29.1151C143.065 29.6048 144.345 29.8569 145.637 29.8569C146.93 29.8569 148.21 29.6048 149.404 29.1151C149.986 28.8768 150.541 28.5845 151.063 28.2429C148.026 25.3822 143.249 25.3822 140.212 28.2429Z" fill="#3B4158"/>
</g>
<g clip-path="url(#clip2_4_479)">
<path d="M294.056 30.8791C294.06 30.8501 294.06 30.8207 294.056 30.7917C294.06 30.768 294.06 30.7439 294.056 30.7202L293.772 28.6789C293.731 28.4347 293.622 28.2064 293.456 28.0196L293.408 27.964L293.319 27.8767L288.409 23.7305L288.547 23.8655C288.434 23.7333 288.293 23.6276 288.133 23.5561C287.973 23.4847 287.799 23.4492 287.623 23.4525H286.132C285.89 23.4478 285.653 23.5233 285.46 23.6669C285.257 23.5242 285.013 23.449 284.763 23.4525H283.272C283.077 23.4494 282.884 23.4969 282.713 23.5904C282.542 23.6838 282.4 23.8199 282.3 23.9846C282.146 24.22 282.088 24.5036 282.138 24.7789L282.324 26.0657C282.201 25.9971 282.061 25.9615 281.919 25.9624H274.7C274.441 25.964 274.188 26.0385 273.971 26.1769C273.761 26.3057 273.593 26.4902 273.485 26.7091L272.926 26.2404C272.706 26.0408 272.416 25.9327 272.116 25.9386H260.789C260.529 25.9432 260.275 26.0144 260.052 26.1451C259.747 26.3203 259.523 26.6052 259.428 26.9394L255.831 38.7346C255.764 38.929 255.757 39.1386 255.812 39.3366C255.867 39.5347 255.981 39.7123 256.139 39.8466C256.18 39.8809 256.223 39.9127 256.268 39.9419C256.268 39.9419 256.196 39.8942 256.155 39.8546L261.065 44.0087C261.273 44.1962 261.544 44.3009 261.826 44.3026H273.242C273.503 44.2959 273.757 44.222 273.979 44.0881C274.105 44.0208 274.217 43.932 274.311 43.826L274.352 43.7704L274.417 43.691L274.465 43.6036L275 44.0564C275.205 44.2364 275.471 44.3354 275.746 44.3344H287.185C287.446 44.3258 287.7 44.252 287.923 44.1199C288.046 44.0484 288.157 43.9601 288.255 43.8578L288.295 43.8022L288.36 43.7228C288.395 43.6725 288.425 43.6194 288.449 43.5639C288.476 43.5157 288.498 43.4652 288.514 43.413L291.796 32.6424V32.5471C291.8 32.5101 291.8 32.4729 291.796 32.4359V32.3644C291.799 32.3407 291.799 32.3166 291.796 32.2929C291.799 32.2427 291.799 32.1923 291.796 32.142H292.849C292.94 32.1502 293.033 32.1502 293.124 32.142H293.197C293.256 32.1247 293.314 32.1006 293.367 32.0705H293.448L293.594 31.9593L293.659 31.9117L293.772 31.7687V31.7211L293.853 31.586C293.849 31.5597 293.849 31.5329 293.853 31.5066C293.849 31.4937 293.849 31.4798 293.853 31.4669C293.871 31.4203 293.884 31.3725 293.894 31.3239C293.89 31.3082 293.89 31.2919 293.894 31.2762C293.89 31.2526 293.89 31.2284 293.894 31.2047C293.894 31.2047 294.056 30.895 294.056 30.8791Z" fill="black"/>
<path d="M272.448 26.8441C272.491 26.8823 272.521 26.9324 272.534 26.9878C272.547 27.0432 272.543 27.1012 272.521 27.1539L268.932 38.9412C268.887 39.0698 268.794 39.1774 268.673 39.243C268.574 39.3079 268.459 39.3462 268.34 39.3542H256.933C256.835 39.3496 256.743 39.31 256.674 39.243C256.632 39.2055 256.603 39.1567 256.59 39.103C256.577 39.0492 256.581 38.9929 256.601 38.9412L260.198 27.1539C260.239 27.0236 260.329 26.9131 260.449 26.8441C260.55 26.7839 260.664 26.7485 260.781 26.7409H272.189C272.285 26.7418 272.378 26.7787 272.448 26.8441ZM266.493 36.5662L268.64 29.5288H262.628L260.49 36.5662H266.493ZM283.337 26.9633C283.376 27.0076 283.425 27.0428 283.479 27.0662C283.534 27.0895 283.593 27.1005 283.653 27.0983H285.136C285.192 27.0988 285.248 27.0853 285.297 27.0589C285.347 27.0325 285.389 26.9941 285.419 26.9474C285.446 26.9109 285.464 26.8696 285.474 26.8259C285.484 26.7823 285.484 26.7371 285.476 26.6932L285.184 24.5963C285.157 24.4992 285.107 24.4096 285.039 24.3342C285 24.2898 284.951 24.2547 284.896 24.2313C284.842 24.2079 284.782 24.1969 284.723 24.1991H283.24C283.183 24.1986 283.128 24.2122 283.078 24.2386C283.029 24.265 282.987 24.3034 282.956 24.3501C282.9 24.4613 282.875 24.5327 282.9 24.5963L283.199 26.6932C283.215 26.7953 283.263 26.8899 283.337 26.9633ZM288.044 24.5804C288.017 24.4833 287.967 24.3937 287.898 24.3183C287.861 24.2741 287.814 24.2389 287.761 24.2155C287.707 24.1921 287.649 24.1811 287.591 24.1833H286.1C286.044 24.1817 285.989 24.1949 285.941 24.2215C285.892 24.248 285.852 24.287 285.824 24.3342C285.77 24.4046 285.747 24.4932 285.76 24.5804L286.059 26.6773C286.078 26.7783 286.126 26.872 286.197 26.9474C286.237 26.9909 286.285 27.0254 286.34 27.0487C286.395 27.072 286.454 27.0835 286.513 27.0824H288.004C288.059 27.0831 288.114 27.0696 288.162 27.0431C288.21 27.0166 288.251 26.9781 288.279 26.9315C288.307 26.896 288.327 26.8547 288.337 26.8107C288.347 26.7667 288.346 26.7212 288.336 26.6773L288.044 24.5804ZM282.033 27.7576L281.887 26.725H274.7C274.588 26.7311 274.478 26.7667 274.384 26.8282C274.325 26.8601 274.273 26.9044 274.232 26.9578C274.192 27.0113 274.163 27.0728 274.149 27.138L273.55 29.1078C273.526 29.1571 273.518 29.2123 273.526 29.2662C273.535 29.32 273.56 29.3701 273.599 29.4097C273.667 29.4726 273.756 29.5093 273.85 29.5129H282.584L280.437 36.5504H271.727C271.615 36.5529 271.505 36.5859 271.411 36.6456C271.296 36.717 271.213 36.8273 271.176 36.9554L270.568 38.9253C270.549 38.9758 270.543 39.0307 270.553 39.084C270.563 39.1373 270.588 39.1868 270.625 39.2271C270.691 39.2943 270.781 39.3341 270.876 39.3383H282.316C282.435 39.3283 282.549 39.2901 282.648 39.2271C282.768 39.1612 282.858 39.0534 282.9 38.9253L286.189 28.1547H282.486C282.428 28.1558 282.369 28.1451 282.315 28.1233C282.261 28.1014 282.211 28.0689 282.17 28.0276C282.103 27.9556 282.056 27.8682 282.033 27.7734V27.7576Z" fill="white"/>
</g>
<g clip-path="url(#clip3_4_479)">
<path d="M418.116 26.6296C418.116 26.6532 418.116 26.6826 418.11 26.7002C418.079 26.9297 418.079 27.1592 418.097 27.3946C418.11 27.4534 418.122 27.5123 418.171 27.5593C418.251 27.6476 418.373 27.6299 418.422 27.524C418.447 27.4711 418.447 27.4181 418.435 27.3652C418.373 27.1416 418.361 26.9062 418.355 26.6767C418.355 26.6649 418.355 26.6473 418.355 26.6296C418.422 26.6238 418.484 26.6179 418.539 26.6179C418.582 26.612 418.618 26.6061 418.649 26.5884C418.741 26.5414 418.741 26.4413 418.643 26.3943C418.606 26.3766 418.557 26.3707 418.514 26.3707C418.361 26.3766 418.208 26.3766 418.054 26.3766C417.999 26.3766 417.944 26.3825 417.889 26.3884C417.858 26.3943 417.821 26.3943 417.797 26.4119C417.754 26.4296 417.73 26.459 417.73 26.5002C417.736 26.5414 417.754 26.5649 417.797 26.5826C417.821 26.6002 417.852 26.6061 417.883 26.6061C417.956 26.612 418.036 26.6238 418.116 26.6296ZM419.802 26.9003C419.802 26.9062 419.808 26.9121 419.808 26.9121C419.832 27.0709 419.857 27.2239 419.875 27.3769C419.881 27.4299 419.888 27.477 419.924 27.5181C420.004 27.6182 420.127 27.6064 420.182 27.5005C420.206 27.4475 420.212 27.3946 420.2 27.3357C420.163 27.1592 420.145 26.9827 420.108 26.812C420.084 26.7061 420.053 26.6061 420.022 26.512C420.004 26.4531 419.961 26.4119 419.888 26.406C419.814 26.3943 419.759 26.4296 419.728 26.4825C419.691 26.5296 419.661 26.5767 419.636 26.6296C419.593 26.7238 419.556 26.8179 419.507 26.9062C419.501 26.9297 419.495 26.9474 419.483 26.965C419.477 26.9533 419.471 26.9474 419.471 26.9474C419.391 26.8003 419.317 26.6532 419.238 26.512C419.225 26.5002 419.219 26.4884 419.213 26.4766C419.176 26.4237 419.133 26.3943 419.066 26.3943C419.005 26.4001 418.956 26.4355 418.925 26.4884C418.913 26.512 418.913 26.5296 418.907 26.5531C418.882 26.7414 418.851 26.9297 418.827 27.118C418.815 27.2239 418.809 27.3299 418.809 27.4358C418.802 27.4593 418.809 27.4887 418.821 27.5123C418.833 27.5593 418.87 27.5888 418.919 27.5946C418.98 27.6005 419.023 27.5829 419.041 27.5358C419.06 27.5005 419.066 27.4711 419.072 27.4417C419.097 27.3357 419.115 27.2357 419.133 27.1357C419.146 27.0768 419.152 27.0298 419.17 26.965C419.182 26.9886 419.195 27.0062 419.207 27.0239C419.262 27.0945 419.317 27.1651 419.385 27.2239C419.452 27.271 419.507 27.2651 419.563 27.2122C419.575 27.2004 419.581 27.1945 419.593 27.1827C419.648 27.1004 419.716 27.018 419.771 26.9356C419.783 26.9238 419.789 26.9121 419.802 26.9003Z" fill="#3A3B7B"/>
<path d="M405.675 26.7452C405.633 26.8571 405.625 26.9376 405.644 27.0046C405.666 27.0957 405.723 27.1255 405.799 27.1023C406.519 26.9314 408.098 27.4165 408.683 27.5517C408.821 27.5801 408.933 27.4093 408.839 27.2561C408.702 27.1078 407.123 26.4728 406.521 26.4382C406.285 26.4253 405.863 26.3672 405.675 26.7452Z" fill="#3A3B7B"/>
<path d="M411.847 24.6896C411.924 24.7321 411.966 24.7727 411.988 24.818C412.019 24.8774 412.003 24.9186 411.95 24.9395C411.474 25.1625 410.84 26.1225 410.584 26.4535C410.522 26.5297 410.379 26.4854 410.358 26.3602C410.362 26.2186 410.924 25.1768 411.237 24.8931C411.36 24.7823 411.564 24.5649 411.847 24.6896Z" fill="#3A3B7B"/>
<path d="M408.056 24.2171C408.148 24.1504 408.244 24.127 408.293 24.1704C409.011 24.7599 409.392 25.6934 409.628 26.548C409.637 26.5679 409.637 26.5965 409.63 26.6263C409.627 26.6518 409.608 26.6787 409.577 26.6995C409.544 26.7225 409.516 26.7295 409.503 26.7097C409.188 26.2988 407.39 24.7 408.056 24.2171Z" fill="#3A3B7B"/>
<path d="M392.847 34.4375C393.02 34.3145 393.207 34.2121 393.405 34.1327C393.612 34.0758 393.833 34.0852 394.034 34.1596C394.235 34.2339 394.405 34.369 394.519 34.5445C394.621 34.7196 394.661 34.9217 394.633 35.1205C394.605 35.3192 394.51 35.5037 394.363 35.6464C394.249 35.762 394.12 35.8627 393.979 35.9459C393.349 36.3364 392.714 36.7054 392.078 37.0959C391.948 37.1936 391.811 37.2812 391.666 37.3579C391.446 37.4631 391.195 37.4913 390.956 37.4376C390.717 37.3839 390.505 37.2517 390.356 37.0638C390.246 36.9307 390.152 36.7853 390.078 36.6305C389.476 35.4164 388.852 34.2076 388.272 32.972C388.005 32.4371 387.787 31.822 387.576 31.2283C387.484 31.0558 387.466 30.8558 387.526 30.6709C387.585 30.4859 387.718 30.3306 387.895 30.2379C388.072 30.1452 388.28 30.1225 388.474 30.1747C388.668 30.2268 388.834 30.3496 388.935 30.517C389.247 30.9145 389.523 31.3368 389.76 31.7793C390.362 32.849 390.936 33.9187 391.516 34.9564C391.549 35.0137 391.587 35.069 391.627 35.1222C392.063 34.9461 392.474 34.716 392.847 34.4375Z" fill="#3A3B7B"/>
<path d="M399.07 34.0644C397.694 35.6101 395.387 35.2197 394.228 33.23C393.403 31.8179 393.258 29.4859 395.052 28.015C395.436 27.7071 395.894 27.4973 396.384 27.4052C396.986 27.3225 397.599 27.4243 398.136 27.6962C398.674 27.968 399.108 28.396 399.377 28.9189C400.358 30.6305 400.218 32.8128 399.07 34.0644ZM398.513 30.4594C398.367 30.0388 398.074 29.6797 397.683 29.4431C397.462 29.2918 397.193 29.2183 396.922 29.2348C396.651 29.2514 396.394 29.3571 396.195 29.534C395.398 30.2133 395.231 31.8233 395.81 32.7807C395.884 32.9368 395.993 33.0756 396.128 33.1872C396.264 33.2989 396.423 33.3808 396.595 33.4271C396.767 33.4735 396.948 33.4832 397.124 33.4557C397.3 33.428 397.468 33.3638 397.616 33.2674C398.048 32.946 398.365 32.5033 398.523 32.0011C398.68 31.4988 398.671 30.9618 398.496 30.4647L398.513 30.4594Z" fill="#3A3B7B"/>
<path d="M404.688 31.1333C404.547 31.1624 404.401 31.1641 404.26 31.1384C404.118 31.1126 403.983 31.06 403.863 30.9835C403.758 30.9258 403.667 30.8465 403.598 30.7512C403.529 30.6559 403.482 30.5471 403.462 30.4325C403.442 30.318 403.448 30.2005 403.481 30.0886C403.514 29.9767 403.572 29.8732 403.651 29.7854C403.79 29.6091 403.986 29.4828 404.209 29.4271C404.79 29.2652 405.388 29.1665 405.992 29.1329C406.125 29.1181 406.259 29.1289 406.387 29.1646C406.516 29.2004 406.635 29.2603 406.739 29.3411C406.843 29.4218 406.929 29.5216 406.992 29.6347C407.055 29.7477 407.094 29.8717 407.106 29.9994C407.281 30.6265 407.3 31.2841 407.162 31.9196C406.661 33.9735 404.933 34.6795 402.994 34.0216C402.449 33.8457 401.972 33.5179 401.623 33.0802C401.157 32.5531 400.827 31.9284 400.659 31.2563C400.522 30.6579 400.537 30.0369 400.702 29.4451C400.867 28.8533 401.177 28.308 401.606 27.8545C402.013 27.3617 402.542 26.9739 403.144 26.726C403.525 26.5246 403.97 26.4674 404.393 26.5655C404.488 26.591 404.575 26.6406 404.644 26.7091C404.714 26.7777 404.762 26.8628 404.786 26.9556C404.809 27.0484 404.806 27.1454 404.777 27.2367C404.748 27.328 404.694 27.4102 404.621 27.4748C404.482 27.5957 404.331 27.7032 404.17 27.7957C403.674 28.0985 403.243 28.4887 402.899 28.9457C402.673 29.2414 402.518 29.5809 402.444 29.9403C402.37 30.2998 402.379 30.6705 402.47 31.0263C402.596 31.5115 402.877 31.9471 403.272 32.2726C404.498 33.3423 406.092 32.31 405.814 30.8498C405.407 30.9461 405.05 31.0477 404.688 31.1333Z" fill="#3A3B7B"/>
<path d="M412.178 34.1499C410.367 35.2197 408.305 34.1499 407.853 31.9035C407.525 30.2989 408.149 28.0524 410.333 27.1966C410.798 27.0185 411.302 26.9559 411.799 27.0148C412.396 27.1196 412.943 27.4016 413.364 27.8209C413.785 28.2403 414.058 28.7758 414.145 29.3522C414.513 31.2616 413.677 33.2995 412.178 34.1499ZM412.808 30.5502C412.807 30.1059 412.643 29.676 412.345 29.3361C412.186 29.1259 411.955 28.9753 411.693 28.9099C411.431 28.8446 411.153 28.8685 410.907 28.9778C409.926 29.3842 409.235 30.8605 409.486 31.9463C409.505 32.1167 409.563 32.281 409.655 32.4278C409.747 32.5745 409.872 32.7002 410.02 32.796C410.168 32.8917 410.336 32.9553 410.513 32.9822C410.689 33.0091 410.869 32.9988 411.041 32.9518C411.559 32.778 412.008 32.4531 412.325 32.0226C412.642 31.592 412.81 31.0773 412.808 30.5502Z" fill="#3A3B7B"/>
<path d="M415.977 34.5993C415.949 34.795 415.842 34.9723 415.679 35.0922C415.515 35.212 415.308 35.2647 415.105 35.2384C414.901 35.2122 414.716 35.1092 414.591 34.9522C414.466 34.7953 414.411 34.5971 414.439 34.4013C414.466 34.2056 414.573 34.0283 414.737 33.9084C414.9 33.7885 415.107 33.7359 415.311 33.7622C415.515 33.7884 415.699 33.8913 415.824 34.0483C415.949 34.2053 416.004 34.4035 415.977 34.5993ZM415.492 27.3838C415.598 27.2285 415.753 27.1102 415.935 27.0466C416.117 26.9829 416.315 26.9774 416.501 27.0308C416.689 27.0761 416.855 27.1821 416.972 27.331C417.089 27.48 417.148 27.6629 417.141 27.8492C417.117 28.1479 417.07 28.4446 417.002 28.7371C416.818 29.7266 416.64 30.7161 416.445 31.6949C416.356 32.0854 416.239 32.4598 416.11 32.8556C416.066 32.9793 415.991 33.0911 415.893 33.1818C415.832 33.2501 415.754 33.3024 415.666 33.3341C415.578 33.3657 415.484 33.3756 415.391 33.3628C415.298 33.35 415.21 33.3149 415.135 33.2609C415.061 33.2068 415.001 33.1355 414.962 33.0535C414.896 32.9064 414.86 32.7483 414.857 32.5881C414.857 31.9249 414.857 31.2563 414.901 30.5877C414.977 29.6335 415.126 28.686 415.347 27.7529C415.373 27.6279 415.422 27.5083 415.492 27.3999V27.3838Z" fill="#3A3B7B"/>
<path fill-rule="evenodd" clip-rule="evenodd" d="M390.493 38.8974C390.427 39.0384 390.409 39.1955 390.441 39.3468C390.463 39.5462 390.51 39.7423 390.581 39.9307C390.67 40.1614 390.77 40.3895 390.894 40.6706C390.922 40.7353 390.951 40.8028 390.982 40.8739C391.149 41.2547 391.357 41.7415 391.635 42.446C391.714 42.6461 391.784 42.8478 391.854 43.051C391.882 43.1331 391.911 43.2154 391.94 43.2979C392.045 43.5914 392.225 43.855 392.464 44.0639C392.565 44.1787 392.699 44.2624 392.85 44.3043C393.004 44.3469 393.167 44.3442 393.319 44.2965C393.472 44.2487 393.605 44.1582 393.703 44.0366C393.799 43.9173 393.856 43.7736 393.867 43.6235C393.929 43.3311 393.908 43.0279 393.805 42.746C393.643 42.2779 393.457 41.8091 393.244 41.3506L393.243 41.3486C392.891 40.6313 392.534 39.9189 392.16 39.2062L392.157 39.2012C392.048 39.0156 391.906 38.8496 391.737 38.7108C391.627 38.5868 391.476 38.5033 391.309 38.4744C391.139 38.445 390.963 38.4747 390.814 38.5581C390.672 38.6358 390.56 38.7545 390.493 38.8974Z" fill="#3A3B7B"/>
<path fill-rule="evenodd" clip-rule="evenodd" d="M395.86 37.131C395.309 36.994 394.733 36.9741 394.174 37.0725C393.74 37.1135 393.314 37.2095 393.018 37.3996C392.867 37.4964 392.745 37.6206 392.677 37.7785C392.609 37.9373 392.601 38.1189 392.657 38.3212C392.758 38.6918 392.891 39.0521 393.023 39.4113L393.044 39.4695L393.044 39.4707C393.441 40.5142 393.842 41.5541 394.247 42.5904C394.294 42.7537 394.36 42.9113 394.445 43.0599L394.447 43.0626C394.559 43.2472 394.703 43.4123 394.872 43.551C394.957 43.6273 395.062 43.68 395.175 43.7036C395.29 43.7274 395.409 43.7205 395.52 43.6836C395.631 43.6468 395.729 43.5814 395.804 43.4946C395.878 43.4092 395.926 43.3064 395.944 43.1969C396.017 42.8995 395.994 42.5878 395.877 42.3035C395.84 42.2079 395.812 42.1101 395.782 42.0072C395.772 41.9729 395.761 41.938 395.751 41.9024C396.676 41.5551 397.661 41.0881 398.008 40.0018C398.143 39.6264 398.155 39.2198 398.04 38.8379C397.925 38.4557 397.69 38.1168 397.366 37.8681C396.926 37.5198 396.412 37.2683 395.86 37.131ZM394.332 38.4635C394.351 38.4585 394.369 38.4538 394.387 38.4494C394.99 38.3585 395.607 38.4796 396.124 38.7905C396.352 38.9426 396.445 39.1116 396.461 39.2742C396.477 39.4416 396.414 39.623 396.287 39.7973C396.046 40.1267 395.607 40.3904 395.21 40.4395C394.92 39.8001 394.627 39.1348 394.332 38.4635Z" fill="#3A3B7B"/>
<path d="M399.532 35.9605C400.189 35.6697 401.001 35.6195 401.637 35.8239C401.797 35.8687 401.936 35.9656 402.03 36.0979C402.124 36.2294 402.167 36.3879 402.152 36.5464C402.151 36.6493 402.125 36.7505 402.076 36.8418C402.025 36.9347 401.952 37.0146 401.863 37.0748C401.774 37.135 401.67 37.1736 401.562 37.1874C401.454 37.2013 401.344 37.1899 401.241 37.1543L401.233 37.1516L401.226 37.1479C401.174 37.1215 401.118 37.1016 401.06 37.0887L401.056 37.0879C400.609 36.9738 400.187 37.1628 400.033 37.395C399.959 37.5057 399.95 37.6175 400.012 37.7191C400.077 37.828 400.238 37.9502 400.563 38.0372C400.653 38.0608 400.745 38.0836 400.838 38.1067C401.095 38.1706 401.362 38.2371 401.621 38.3292L401.622 38.3295C402.815 38.7652 403.259 39.6674 403.107 40.5161C402.957 41.3553 402.226 42.1191 401.128 42.2992C400.729 42.3842 400.313 42.3677 399.922 42.2512C399.53 42.1344 399.177 41.9212 398.897 41.6327L398.89 41.6252C398.802 41.5165 398.742 41.3888 398.716 41.2533C398.692 41.1311 398.704 41.0047 398.753 40.8892C398.8 40.7743 398.881 40.6749 398.986 40.6024C399.096 40.5203 399.229 40.471 399.368 40.4607C399.507 40.4505 399.646 40.4795 399.768 40.544C399.89 40.6004 400.003 40.6724 400.104 40.758L400.106 40.7595C400.286 40.9173 400.503 40.9584 400.712 40.9203C400.924 40.8817 401.123 40.7616 401.251 40.6021C401.378 40.4437 401.429 40.2555 401.368 40.0729C401.307 39.8888 401.124 39.6827 400.721 39.5103C400.616 39.4674 400.507 39.4328 400.393 39.3991C400.363 39.3901 400.332 39.381 400.3 39.3719C400.216 39.3474 400.13 39.3222 400.045 39.2945C399.987 39.2754 399.929 39.2573 399.872 39.2394C399.715 39.1904 399.562 39.1427 399.415 39.0787C399.096 38.9742 398.819 38.7735 398.628 38.5064C398.435 38.2382 398.338 37.9174 398.352 37.5921C398.353 36.7992 398.873 36.2529 399.532 35.9605Z" fill="#3A3B7B"/>
<path d="M407.85 35.876C407.723 35.8164 407.582 35.7881 407.441 35.7937C407.299 35.7992 407.162 35.8385 407.04 35.908C406.919 35.977 406.818 36.0736 406.745 36.1893C406.679 36.2867 406.633 36.3956 406.61 36.51C406.587 36.6243 406.587 36.7417 406.611 36.8557C406.635 37.0022 406.661 37.1447 406.687 37.2853C406.73 37.5178 406.772 37.7451 406.8 37.9769L406.801 37.9828C406.863 38.3463 406.896 38.7139 406.899 39.0823L406.899 39.0875C406.921 39.4854 406.78 39.8754 406.506 40.175L406.502 40.1803C406.413 40.2899 406.294 40.3734 406.158 40.4218C406.022 40.4701 405.875 40.4812 405.733 40.4538C405.591 40.4265 405.46 40.3618 405.354 40.267C405.248 40.1721 405.172 40.0506 405.134 39.9166C405.053 39.6341 405.006 39.3435 404.994 39.0508L405.133 36.9283C405.135 36.9006 405.137 36.8722 405.139 36.8435C405.145 36.779 405.15 36.7134 405.152 36.6521C405.156 36.562 405.153 36.4693 405.131 36.3816C405.109 36.292 405.066 36.2067 404.99 36.1341C404.916 36.0622 404.815 36.0091 404.688 35.973C404.458 35.9092 404.264 35.9112 404.102 35.9772C403.94 36.0431 403.829 36.1655 403.75 36.3069C403.673 36.4471 403.622 36.6131 403.585 36.7793C403.557 36.9027 403.534 37.0322 403.513 37.1555C403.505 37.198 403.498 37.2397 403.491 37.2802L403.49 37.2814C403.376 37.9574 403.341 38.6438 403.388 39.3273C403.397 39.6967 403.478 40.0613 403.625 40.4024C403.792 40.8427 404.094 41.2241 404.491 41.4964C404.889 41.7692 405.364 41.9196 405.852 41.9275C406.341 41.9354 406.821 41.8006 407.229 41.5409C407.635 41.2815 407.951 40.9098 408.133 40.475C408.387 39.921 408.507 39.3185 408.482 38.7135C408.467 38.2718 408.442 37.8267 408.417 37.3839C408.405 37.1666 408.393 36.9499 408.382 36.7344C408.376 36.5184 408.302 36.3091 408.169 36.1348C408.087 36.0245 407.977 35.9356 407.85 35.876Z" fill="#3A3B7B"/>
<path d="M412.353 39.2041C412.34 39.2198 412.326 39.2361 412.312 39.253C412.209 38.6801 412.113 38.1074 412.017 37.5338C411.982 37.328 411.948 37.1213 411.913 36.9152L411.909 36.8922L411.896 36.8724C411.872 36.835 411.87 36.7983 411.87 36.7201V36.7111L411.868 36.7022C411.842 36.5407 411.766 36.3905 411.65 36.2711C411.534 36.152 411.384 36.0692 411.218 36.0332C411.053 35.9941 410.879 36.0027 410.719 36.058C410.559 36.1132 410.42 36.2124 410.318 36.3432C410.234 36.4435 410.165 36.5548 410.113 36.6737C409.995 36.9299 409.877 37.1867 409.758 37.4442L409.756 37.4487C409.459 38.0915 409.16 38.7387 408.87 39.391L408.869 39.3931C408.691 39.8161 408.544 40.2617 408.398 40.706C408.368 40.7947 408.339 40.8833 408.31 40.9717C408.257 41.1119 408.234 41.2608 408.241 41.4097C408.232 41.543 408.265 41.6759 408.337 41.7906C408.41 41.9076 408.519 41.9996 408.65 42.0538C408.788 42.112 408.943 42.1243 409.089 42.0889C409.235 42.0535 409.365 41.9726 409.458 41.8588C409.577 41.7187 409.679 41.5658 409.762 41.4038C410.008 40.9213 410.243 40.4329 410.476 39.9466C410.567 39.7585 410.655 39.59 410.755 39.4066C410.762 39.4292 410.769 39.4513 410.776 39.4734C410.881 39.9163 411.058 40.3406 411.3 40.7306C411.346 40.8133 411.41 40.8855 411.488 40.9423C411.566 40.9998 411.657 41.0402 411.753 41.0607C411.85 41.0812 411.95 41.0813 412.046 41.061C412.142 41.0407 412.233 41.0003 412.312 40.9431L412.467 40.8313L413.674 39.8557L413.603 40.2922C413.505 40.8922 413.408 41.4872 413.304 42.0824C413.237 42.3462 413.237 42.6217 413.305 42.8855C413.334 43.0339 413.409 43.1705 413.519 43.2779C413.631 43.3862 413.774 43.4598 413.93 43.4892C414.085 43.5185 414.247 43.5023 414.393 43.4425C414.537 43.3836 414.659 43.2852 414.744 43.1597C414.943 42.9227 415.067 42.6359 415.101 42.3332C415.153 41.9058 415.21 41.4726 415.268 41.0395C415.335 40.5403 415.402 40.0413 415.458 39.5518L415.458 39.5503C415.512 39.0145 415.539 38.4765 415.537 37.9382C415.549 37.7681 415.505 37.5986 415.411 37.4538C415.316 37.3084 415.176 37.1954 415.011 37.1308C414.839 37.0558 414.647 37.0358 414.463 37.0737C414.279 37.1113 414.113 37.2041 413.989 37.3384C413.766 37.536 413.557 37.7475 413.364 37.9714L413.362 37.9729C413.151 38.2258 412.941 38.4837 412.732 38.7399C412.605 38.8957 412.479 39.0511 412.353 39.2041Z" fill="#3A3B7B"/>
</g>
<g clip-path="url(#clip4_4_479)">
<path d="M545.266 25.4317C545.266 25.7561 545.532 26.019 545.861 26.019H546.455C546.784 26.019 547.05 25.7561 547.05 25.4317C547.05 25.1074 546.784 24.8444 546.455 24.8444H545.861C545.532 24.8444 545.266 25.1074 545.266 25.4317Z" fill="#212326"/>
<path d="M528.024 43.6383H530.912L530.071 42.8077C529.848 42.5874 529.546 42.4637 529.231 42.4637H528.024C523.427 42.4637 519.7 38.7824 519.7 34.2414C519.7 29.7003 523.427 26.019 528.024 26.019H537.537C542.134 26.019 545.861 29.7003 545.861 34.2414C545.861 38.7824 542.134 42.4637 537.537 42.4637H533.978C533.505 42.4637 533.052 42.278 532.717 41.9476L531.732 40.9745C531.174 40.4238 530.418 40.1144 529.63 40.1144H528.024C524.74 40.1144 522.078 37.485 522.078 34.2414C522.078 30.9977 524.74 28.3683 528.024 28.3683H537.537C540.821 28.3683 543.482 30.9977 543.482 34.2414C543.482 37.485 540.821 40.1144 537.537 40.1144H535.252C534.779 40.1144 534.325 39.9288 533.991 39.5984L533.006 38.6253C532.448 38.0746 531.692 37.7652 530.903 37.7652H528.024C526.054 37.7652 524.457 36.1875 524.457 34.2414C524.457 32.2952 526.054 30.7175 528.024 30.7175H537.537C539.507 30.7175 541.104 32.2952 541.104 34.2414C541.104 36.1638 539.546 37.7267 537.609 37.7645L537.608 37.7652H536.738C536.265 37.7652 535.812 37.5796 535.477 37.2492L534.492 36.2761C534.035 35.8242 533.443 35.5348 532.81 35.4455L532.78 35.416H528.024C527.367 35.416 526.835 34.8901 526.835 34.2414C526.835 33.5926 527.367 33.0667 528.024 33.0667H537.537C538.194 33.0667 538.726 33.5926 538.726 34.2414C538.726 34.8901 538.194 35.416 537.537 35.416H535.159L535.999 36.2466C536.222 36.4668 536.525 36.5906 536.84 36.5906H537.537C538.85 36.5906 539.915 35.5388 539.915 34.2414C539.915 32.9439 538.85 31.8921 537.537 31.8921H528.024C526.71 31.8921 525.646 32.9439 525.646 34.2414C525.646 35.5388 526.71 36.5906 528.024 36.5906H532.39C532.863 36.5906 533.317 36.7762 533.651 37.1066L534.636 38.0797C535.194 38.6304 535.95 38.9398 536.738 38.9398H537.834V38.9308C540.323 38.7792 542.293 36.7376 542.293 34.2414C542.293 31.6465 540.164 29.5429 537.537 29.5429H528.024C525.397 29.5429 523.267 31.6465 523.267 34.2414C523.267 36.8363 525.397 38.9398 528.024 38.9398H530.903C531.377 38.9398 531.83 39.1255 532.165 39.4559L533.15 40.429C533.707 40.9797 534.463 41.2891 535.252 41.2891H537.537C541.477 41.2891 544.672 38.1337 544.672 34.2414C544.672 30.349 541.477 27.1937 537.537 27.1937H528.024C524.084 27.1937 520.889 30.349 520.889 34.2414C520.889 38.1337 524.084 41.2891 528.024 41.2891H529.63C530.103 41.2891 530.557 41.4747 530.891 41.8051L531.876 42.7782C532.434 43.3289 533.19 43.6383 533.978 43.6383H537.537C542.791 43.6383 547.05 39.4311 547.05 34.2414C547.05 29.0516 542.791 24.8444 537.537 24.8444L528.024 24.8444C522.77 24.8444 518.511 29.0516 518.511 34.2414C518.511 39.4311 522.77 43.6383 528.024 43.6383Z" fill="#212326"/>
</g>
<g clip-path="url(#clip5_4_479)">
<path d="M651.858 26.9326C650.444 26.9326 649.089 27.4941 648.089 28.4937L644.827 31.7556C643.828 32.7551 643.266 34.1108 643.266 35.5243C643.266 38.4678 645.652 40.854 648.596 40.854C650.009 40.854 651.365 40.2925 652.365 39.293L654.621 37.0366C654.621 37.0366 654.621 37.0367 654.621 37.0366L661.195 30.4624C661.672 29.9851 662.32 29.7169 662.995 29.7169C664.125 29.7169 665.083 30.4535 665.416 31.4729L667.49 29.3981C666.544 27.9156 664.884 26.9326 662.995 26.9326C661.581 26.9326 660.226 27.4941 659.226 28.4937L650.396 37.3242C649.918 37.8016 649.271 38.0697 648.596 38.0697C647.19 38.0697 646.051 36.9301 646.051 35.5243C646.051 34.8492 646.319 34.2018 646.796 33.7244L650.058 30.4624C650.535 29.9851 651.183 29.7169 651.858 29.7169C652.988 29.7169 653.946 30.4536 654.279 31.4729L656.353 29.3981C655.407 27.9157 653.747 26.9326 651.858 26.9326Z" fill="#394149"/>
<path d="M661.533 37.3242C661.056 37.8016 660.408 38.0697 659.733 38.0697C658.603 38.0697 657.645 37.3333 657.313 36.3141L655.238 38.3889C656.184 39.8711 657.844 40.854 659.733 40.854C661.147 40.854 662.502 40.2925 663.502 39.293L672.332 30.4624C672.81 29.9851 673.457 29.7169 674.132 29.7169C675.538 29.7169 676.678 30.8565 676.678 32.2623C676.678 32.9374 676.409 33.5849 675.932 34.0622L672.67 37.3242C672.193 37.8016 671.545 38.0697 670.87 38.0697C669.74 38.0697 668.782 37.3331 668.45 36.3139L666.375 38.3887C667.321 39.8711 668.981 40.854 670.87 40.854C672.284 40.854 673.639 40.2925 674.639 39.293L677.901 36.031C678.9 35.0315 679.462 33.6759 679.462 32.2623C679.462 29.3188 677.076 26.9326 674.132 26.9326C672.719 26.9326 671.363 27.4941 670.363 28.4937L661.533 37.3242Z" fill="#394149"/>
</g>
<path fill-rule="evenodd" clip-rule="evenodd" d="M781.218 33.9811L791.913 23.3375L796.104 26.7416C796.104 26.7416 794.651 26.7709 793.39 27.2252C792.129 27.6794 791.499 28.3471 790.834 29.0576C789.38 30.6126 788.965 32.1069 788.976 34.011C788.986 35.9151 789.558 36.9406 790.664 38.3351C791.039 38.8074 791.408 39.2616 792.036 39.6047C792.25 39.7217 793.153 40.3808 793.748 40.5652C794.343 40.7496 795.939 40.8196 795.939 40.8196L792.036 44.8731L781.218 33.9811Z" fill="black"/>
<path d="M796.168 36.6101C797.754 36.6101 799.039 35.3247 799.039 33.739C799.039 32.1533 797.754 30.8678 796.168 30.8678C794.582 30.8678 793.297 32.1533 793.297 33.739C793.297 35.3247 794.582 36.6101 796.168 36.6101Z" fill="black"/>
<defs>
<clipPath id="clip0_4_479">
<rect width="27.8428" height="27.8428" fill="white" transform="translate(2.78434 20.0786)"/>
</clipPath>
<clipPath id="clip1_4_479">
<rect width="27.8428" height="19.4899" fill="white" transform="translate(131.716 24.1484)"/>
</clipPath>
<clipPath id="clip2_4_479">
<rect width="38.2838" height="20.8821" fill="white" transform="translate(255.775 23.4523)"/>
</clipPath>
<clipPath id="clip3_4_479">
<rect width="32.7153" height="20.186" fill="white" transform="translate(387.491 24.1484)"/>
</clipPath>
<clipPath id="clip4_4_479">
<rect width="28.5388" height="18.7939" fill="white" transform="translate(518.511 24.8444)"/>
</clipPath>
<clipPath id="clip5_4_479">
<rect width="36.1956" height="13.9214" fill="white" transform="translate(643.266 26.9326)"/>
</clipPath>
</defs>
</svg>
