<svg width="34" height="35" viewBox="0 0 34 35" fill="none" xmlns="http://www.w3.org/2000/svg">
<path d="M19.2835 13.9601C19.0663 13.9601 18.8897 13.7838 18.8897 13.5663V12.8972C18.8897 12.68 19.066 12.5034 19.2835 12.5034C19.5006 12.5034 19.6772 12.6797 19.6772 12.8972V13.5663C19.6772 13.7838 19.5007 13.9601 19.2835 13.9601Z" fill="#103E13"/>
<path d="M17.628 13.9601C17.4108 13.9601 17.2343 13.7838 17.2343 13.5663V12.8972C17.2343 12.68 17.4106 12.5034 17.628 12.5034C17.8452 12.5034 18.0218 12.6797 18.0218 12.8972V13.5663C18.0215 13.7838 17.8455 13.9601 17.628 13.9601Z" fill="#103E13"/>
<path d="M15.9727 13.9601C15.7555 13.9601 15.579 13.7838 15.579 13.5663V12.8972C15.579 12.68 15.7553 12.5034 15.9727 12.5034C16.1899 12.5034 16.3665 12.6797 16.3665 12.8972V13.5663C16.3665 13.7838 16.1902 13.9601 15.9727 13.9601Z" fill="#103E13"/>
<path d="M19.2835 16.6964C19.0663 16.6964 18.8897 16.5201 18.8897 16.3027V15.6338C18.8897 15.4166 19.066 15.2401 19.2835 15.2401C19.5006 15.2401 19.6772 15.4163 19.6772 15.6338V16.3027C19.6772 16.5201 19.5007 16.6964 19.2835 16.6964Z" fill="#103E13"/>
<path d="M17.628 16.6964C17.4108 16.6964 17.2343 16.5201 17.2343 16.3027V15.6338C17.2343 15.4166 17.4106 15.2401 17.628 15.2401C17.8452 15.2401 18.0218 15.4163 18.0218 15.6338V16.3027C18.0215 16.5201 17.8455 16.6964 17.628 16.6964Z" fill="#103E13"/>
<path d="M15.9727 16.6964C15.7555 16.6964 15.579 16.5201 15.579 16.3027V15.6338C15.579 15.4166 15.7553 15.2401 15.9727 15.2401C16.1899 15.2401 16.3665 15.4163 16.3665 15.6338V16.3027C16.3665 16.5201 16.1902 16.6964 15.9727 16.6964Z" fill="#103E13"/>
<path d="M19.2835 19.4329C19.0663 19.4329 18.8897 19.2566 18.8897 19.0392V18.37C18.8897 18.1528 19.066 17.9763 19.2835 17.9763C19.5006 17.9763 19.6772 18.1525 19.6772 18.37V19.0392C19.6772 19.2566 19.5007 19.4329 19.2835 19.4329Z" fill="#103E13"/>
<path d="M17.628 19.4329C17.4108 19.4329 17.2343 19.2566 17.2343 19.0392V18.37C17.2343 18.1528 17.4106 17.9763 17.628 17.9763C17.8452 17.9763 18.0218 18.1525 18.0218 18.37V19.0392C18.0215 19.2566 17.8455 19.4329 17.628 19.4329Z" fill="#103E13"/>
<path d="M15.9727 19.4329C15.7555 19.4329 15.579 19.2566 15.579 19.0392V18.37C15.579 18.1528 15.7553 17.9763 15.9727 17.9763C16.1899 17.9763 16.3665 18.1525 16.3665 18.37V19.0392C16.3665 19.2566 16.1902 19.4329 15.9727 19.4329Z" fill="#103E13"/>
<path d="M19.2835 22.1687C19.0663 22.1687 18.8897 21.9925 18.8897 21.775V21.1058C18.8897 20.8887 19.066 20.7121 19.2835 20.7121C19.5006 20.7121 19.6772 20.8884 19.6772 21.1058V21.775C19.6772 21.9925 19.5007 22.1687 19.2835 22.1687Z" fill="#103E13"/>
<path d="M17.628 22.1687C17.4108 22.1687 17.2343 21.9925 17.2343 21.775V21.1058C17.2343 20.8887 17.4106 20.7121 17.628 20.7121C17.8452 20.7121 18.0218 20.8884 18.0218 21.1058V21.775C18.0215 21.9925 17.8455 22.1687 17.628 22.1687Z" fill="#103E13"/>
<path d="M15.9727 22.1687C15.7555 22.1687 15.579 21.9925 15.579 21.775V21.1058C15.579 20.8887 15.7553 20.7121 15.9727 20.7121C16.1899 20.7121 16.3665 20.8884 16.3665 21.1058V21.775C16.3665 21.9925 16.1902 22.1687 15.9727 22.1687Z" fill="#103E13"/>
<path d="M19.2835 24.9051C19.0663 24.9051 18.8897 24.7288 18.8897 24.5114V23.8425C18.8897 23.6253 19.066 23.4487 19.2835 23.4487C19.5006 23.4487 19.6772 23.625 19.6772 23.8425V24.5114C19.6772 24.7285 19.5007 24.9051 19.2835 24.9051Z" fill="#103E13"/>
<path d="M17.628 24.9051C17.4108 24.9051 17.2343 24.7288 17.2343 24.5114V23.8425C17.2343 23.6253 17.4106 23.4487 17.628 23.4487C17.8452 23.4487 18.0218 23.625 18.0218 23.8425V24.5114C18.0215 24.7285 17.8455 24.9051 17.628 24.9051Z" fill="#103E13"/>
<path d="M15.9727 24.9051C15.7555 24.9051 15.579 24.7288 15.579 24.5114L15.5793 23.8425C15.5793 23.6253 15.7555 23.4487 15.973 23.4487C16.1902 23.4487 16.3668 23.625 16.3668 23.8425V24.5114C16.3665 24.7285 16.1902 24.9051 15.9727 24.9051Z" fill="#103E13"/>
<path d="M4.72454 27.6283C4.72454 27.8455 4.90082 28.022 5.11829 28.022H29.0963C29.3135 28.022 29.4901 27.8458 29.4901 27.6283C29.4901 27.4111 29.3138 27.2345 29.0963 27.2345H28.3684V15.9295C28.3684 15.7123 28.1922 15.5357 27.9747 15.5357L21.546 15.536V7.38563C21.546 7.2478 21.4741 7.12039 21.3565 7.049C21.2393 6.97733 21.0927 6.97294 20.9708 7.03637L13.6618 10.8418C13.5314 10.9096 13.4501 11.0441 13.4501 11.191V18.3102H6.3766C6.15941 18.3102 5.98285 18.4865 5.98285 18.704V27.2346H5.11741C4.90022 27.2343 4.72421 27.4106 4.72421 27.6281L4.72454 27.6283ZM21.5461 21.4995H27.5813V27.2349L21.5461 27.2346V21.4995ZM21.5461 18.7633H27.5813V20.7123L21.5461 20.712V18.7633ZM21.5461 16.3231H27.5813V17.9763H21.5461V16.3231ZM14.2372 11.4301L20.7584 8.03466V27.2342H14.2372V11.4301ZM8.71678 24.0897C8.71678 23.2726 9.36423 22.6075 10.1602 22.6075C10.9562 22.6075 11.604 23.2723 11.604 24.0897V27.2347H8.71678V24.0897ZM6.77032 19.0976H13.45V27.2346H12.3914V24.0896C12.3914 22.8383 11.3909 21.8202 10.1602 21.8202C8.93012 21.8202 7.92958 22.838 7.92958 24.0896V27.2346H6.77032V19.0976Z" fill="#103E13"/>
</svg>
