<svg width="153" height="25" viewBox="0 0 153 25" fill="none" xmlns="http://www.w3.org/2000/svg">
<path d="M19.0163 13.514L13.6254 22.7469L8.23449 13.514H19.0163ZM20.4605 12.6888H6.78445L13.6254 24.38L20.4605 12.6888Z" fill="#263238"/>
<path d="M28.3891 2.03038L33.78 11.2633H22.9981L28.3891 2.03038ZM28.3891 0.380005L21.5481 12.0712H35.23L28.3891 0.380005Z" fill="#263238"/>
<path d="M0.230003 0.380005L5.96591 10.7209L12.2338 0.639666L0.230003 0.380005Z" fill="#4CAF4F"/>
<path d="M13.6255 1.28589L19.6421 11.569H7.59728L13.6255 1.28589Z" fill="#4CAF4F"/>
<path d="M21.1915 13.8141L27.2139 24.38H14.8826L21.0044 13.8141H21.1915Z" fill="#4CAF4F"/>
<path d="M22.4953 13.1735L28.3891 23.5778L34.3647 13.1735H22.4953Z" fill="#4CAF4F"/>
<path d="M57.8327 2.04904V22.4127H54.1139L45.2545 9.59592H45.1054V22.4127H40.8V2.04904H44.5784L53.3682 14.8559H53.5472V2.04904H57.8327Z" fill="#263238"/>
<path d="M68.2705 22.711C66.6995 22.711 65.3472 22.3928 64.2137 21.7564C63.0868 21.1134 62.2184 20.2053 61.6086 19.032C60.9987 17.8521 60.6938 16.4567 60.6938 14.8459C60.6938 13.2749 60.9987 11.8961 61.6086 10.7096C62.2184 9.523 63.0769 8.59828 64.1839 7.9354C65.2975 7.27253 66.6034 6.94109 68.1015 6.94109C69.1091 6.94109 70.047 7.10349 70.9154 7.4283C71.7904 7.74649 72.5527 8.22707 73.2023 8.87006C73.8586 9.51306 74.369 10.3218 74.7336 11.2962C75.0982 12.264 75.2805 13.3975 75.2805 14.6968V15.8601H62.3842V13.2351H71.2933C71.2933 12.6253 71.1607 12.085 70.8955 11.6144C70.6304 11.1437 70.2625 10.7758 69.7918 10.5107C69.3278 10.2389 68.7876 10.103 68.1711 10.103C67.5281 10.103 66.958 10.2522 66.4609 10.5505C65.9703 10.8421 65.5859 11.2365 65.3075 11.7337C65.0291 12.2242 64.8865 12.7711 64.8799 13.3743V15.8701C64.8799 16.6257 65.0191 17.2787 65.2975 17.8289C65.5826 18.3791 65.9836 18.8033 66.5006 19.1016C67.0177 19.3999 67.6309 19.549 68.3401 19.549C68.8108 19.549 69.2416 19.4828 69.6327 19.3502C70.0238 19.2176 70.3586 19.0187 70.637 18.7536C70.9154 18.4884 71.1275 18.1636 71.2734 17.7792L75.191 18.0377C74.9921 18.979 74.5844 19.8009 73.968 20.5036C73.3581 21.1996 72.5693 21.7432 71.6015 22.1343C70.6403 22.5187 69.53 22.711 68.2705 22.711Z" fill="#263238"/>
<path d="M81.311 7.13995L84.115 12.4794L86.9886 7.13995H91.3337L86.909 14.7763L91.4531 22.4127H87.1278L84.115 17.1328L81.1519 22.4127H76.7769L81.311 14.7763L76.936 7.13995H81.311Z" fill="#263238"/>
<path d="M100.203 22.711C98.6387 22.711 97.293 22.3795 96.1661 21.7167C95.0459 21.0471 94.1841 20.1191 93.5809 18.9326C92.9843 17.746 92.686 16.3805 92.686 14.836C92.686 13.2716 92.9876 11.8994 93.5908 10.7195C94.2007 9.53294 95.0657 8.60823 96.186 7.94535C97.3063 7.27584 98.6387 6.94109 100.183 6.94109C101.516 6.94109 102.682 7.18304 103.683 7.66694C104.684 8.15084 105.476 8.83029 106.06 9.70529C106.643 10.5803 106.964 11.6078 107.024 12.7877H103.027C102.914 12.0254 102.616 11.4122 102.132 10.9482C101.655 10.4775 101.028 10.2422 100.253 10.2422C99.5965 10.2422 99.0231 10.4212 98.5326 10.7792C98.0487 11.1305 97.6709 11.6442 97.3991 12.3203C97.1273 12.9965 96.9914 13.8151 96.9914 14.7763C96.9914 15.7507 97.124 16.5793 97.3891 17.2621C97.6609 17.9449 98.0421 18.4652 98.5326 18.8232C99.0231 19.1811 99.5965 19.3601 100.253 19.3601C100.737 19.3601 101.171 19.2607 101.555 19.0618C101.946 18.863 102.268 18.5746 102.52 18.1968C102.778 17.8123 102.947 17.3516 103.027 16.8147H107.024C106.958 17.9813 106.64 19.0088 106.07 19.8971C105.506 20.7787 104.727 21.4681 103.733 21.9652C102.739 22.4624 101.562 22.711 100.203 22.711Z" fill="#263238"/>
<path d="M116.696 22.711C115.125 22.711 113.773 22.3928 112.639 21.7564C111.513 21.1134 110.644 20.2053 110.034 19.032C109.425 17.8521 109.12 16.4567 109.12 14.8459C109.12 13.2749 109.425 11.8961 110.034 10.7096C110.644 9.523 111.503 8.59828 112.61 7.9354C113.723 7.27253 115.029 6.94109 116.527 6.94109C117.535 6.94109 118.473 7.10349 119.341 7.4283C120.216 7.74649 120.979 8.22707 121.628 8.87006C122.284 9.51306 122.795 10.3218 123.159 11.2962C123.524 12.264 123.706 13.3975 123.706 14.6968V15.8601H110.81V13.2351H119.719C119.719 12.6253 119.586 12.085 119.321 11.6144C119.056 11.1437 118.688 10.7758 118.218 10.5107C117.754 10.2389 117.213 10.103 116.597 10.103C115.954 10.103 115.384 10.2522 114.887 10.5505C114.396 10.8421 114.012 11.2365 113.733 11.7337C113.455 12.2242 113.312 12.7711 113.306 13.3743V15.8701C113.306 16.6257 113.445 17.2787 113.723 17.8289C114.008 18.3791 114.409 18.8033 114.926 19.1016C115.443 19.3999 116.057 19.549 116.766 19.549C117.237 19.549 117.667 19.4828 118.059 19.3502C118.45 19.2176 118.784 19.0187 119.063 18.7536C119.341 18.4884 119.553 18.1636 119.699 17.7792L123.617 18.0377C123.418 18.979 123.01 19.8009 122.394 20.5036C121.784 21.1996 120.995 21.7432 120.027 22.1343C119.066 22.5187 117.956 22.711 116.696 22.711Z" fill="#263238"/>
<path d="M130.706 13.5831V22.4127H126.47V7.13995H130.507V9.83455H130.686C131.024 8.9463 131.591 8.24364 132.387 7.7266C133.182 7.20292 134.147 6.94109 135.28 6.94109C136.341 6.94109 137.265 7.1731 138.054 7.63711C138.843 8.10113 139.456 8.764 139.894 9.62575C140.331 10.4809 140.55 11.5017 140.55 12.6882V22.4127H136.314V13.4439C136.321 12.5093 136.082 11.7801 135.598 11.2564C135.114 10.7261 134.448 10.461 133.6 10.461C133.03 10.461 132.526 10.5836 132.088 10.8289C131.657 11.0741 131.319 11.4321 131.074 11.9027C130.836 12.3668 130.713 12.9269 130.706 13.5831Z" fill="#263238"/>
<path d="M152.012 7.13995V10.3218H142.815V7.13995H152.012ZM144.903 3.48086H149.138V17.7195C149.138 18.1106 149.198 18.4155 149.317 18.6343C149.437 18.8464 149.602 18.9955 149.815 19.0817C150.033 19.1679 150.285 19.211 150.57 19.211C150.769 19.211 150.968 19.1944 151.167 19.1613C151.366 19.1215 151.518 19.0917 151.624 19.0718L152.29 22.2238C152.078 22.29 151.78 22.3663 151.396 22.4524C151.011 22.5453 150.544 22.6016 149.994 22.6215C148.973 22.6613 148.078 22.5254 147.309 22.2138C146.547 21.9023 145.953 21.4184 145.529 20.7621C145.105 20.1059 144.896 19.2773 144.903 18.2763V3.48086Z" fill="#263238"/>
</svg>
